<svg width="305" height="67" viewBox="0 0 305 67" fill="none" xmlns="http://www.w3.org/2000/svg">
<path d="M76.456 38.352C76.024 38.64 75.496 38.864 74.872 39.024C74.264 39.184 73.656 39.264 73.048 39.264C71.72 39.264 70.68 38.92 69.928 38.232C69.176 37.528 68.8 36.608 68.8 35.472V27.936H65.896V26.352H68.8V23.496L70.816 23.256V26.352H75.208L74.944 27.936H70.816V35.448C70.816 36.168 71.008 36.704 71.392 37.056C71.776 37.408 72.392 37.584 73.24 37.584C74.104 37.584 74.912 37.384 75.664 36.984L76.456 38.352ZM89.8626 36.24C89.8626 36.736 89.9426 37.104 90.1026 37.344C90.2626 37.568 90.5266 37.736 90.8946 37.848L90.3906 39.288C89.1586 39.128 88.3906 38.528 88.0866 37.488C87.6386 38.064 87.0706 38.504 86.3826 38.808C85.7106 39.112 84.9586 39.264 84.1266 39.264C82.8626 39.264 81.8626 38.912 81.1266 38.208C80.4066 37.504 80.0466 36.56 80.0466 35.376C80.0466 34.08 80.5506 33.08 81.5586 32.376C82.5826 31.672 84.0466 31.32 85.9506 31.32H87.8226V30.288C87.8226 29.392 87.5666 28.752 87.0546 28.368C86.5426 27.968 85.7986 27.768 84.8226 27.768C83.8626 27.768 82.7666 27.984 81.5346 28.416L80.9826 26.88C82.4706 26.352 83.8546 26.088 85.1346 26.088C86.6706 26.088 87.8386 26.448 88.6386 27.168C89.4546 27.888 89.8626 28.888 89.8626 30.168V36.24ZM84.6306 37.752C85.2546 37.752 85.8466 37.592 86.4066 37.272C86.9826 36.952 87.4546 36.512 87.8226 35.952V32.712H85.9986C84.6546 32.712 83.6866 32.936 83.0946 33.384C82.5026 33.832 82.2066 34.488 82.2066 35.352C82.2066 36.952 83.0146 37.752 84.6306 37.752ZM97.1973 28.008C98.1733 26.728 99.3813 26.088 100.821 26.088C102.437 26.088 103.629 26.664 104.397 27.816C105.165 28.968 105.549 30.584 105.549 32.664C105.549 34.648 105.109 36.248 104.229 37.464C103.349 38.664 102.117 39.264 100.533 39.264C99.0773 39.264 97.9333 38.736 97.1013 37.68L96.9573 39H95.1813V21.264L97.1973 21.024V28.008ZM100.077 37.632C101.133 37.632 101.941 37.216 102.501 36.384C103.077 35.552 103.365 34.312 103.365 32.664C103.365 31.032 103.109 29.8 102.597 28.968C102.101 28.136 101.357 27.72 100.365 27.72C99.7253 27.72 99.1333 27.912 98.5893 28.296C98.0613 28.68 97.5973 29.16 97.1973 29.736V36C97.5333 36.512 97.9493 36.912 98.4453 37.2C98.9413 37.488 99.4853 37.632 100.077 37.632ZM118.644 36.24C118.644 36.736 118.724 37.104 118.884 37.344C119.044 37.568 119.308 37.736 119.676 37.848L119.172 39.288C117.94 39.128 117.172 38.528 116.868 37.488C116.42 38.064 115.852 38.504 115.164 38.808C114.492 39.112 113.74 39.264 112.908 39.264C111.644 39.264 110.644 38.912 109.908 38.208C109.188 37.504 108.828 36.56 108.828 35.376C108.828 34.08 109.332 33.08 110.34 32.376C111.364 31.672 112.828 31.32 114.732 31.32H116.604V30.288C116.604 29.392 116.348 28.752 115.836 28.368C115.324 27.968 114.58 27.768 113.604 27.768C112.644 27.768 111.548 27.984 110.316 28.416L109.764 26.88C111.252 26.352 112.636 26.088 113.916 26.088C115.452 26.088 116.62 26.448 117.42 27.168C118.236 27.888 118.644 28.888 118.644 30.168V36.24ZM113.412 37.752C114.036 37.752 114.628 37.592 115.188 37.272C115.764 36.952 116.236 36.512 116.604 35.952V32.712H114.78C113.436 32.712 112.468 32.936 111.876 33.384C111.284 33.832 110.988 34.488 110.988 35.352C110.988 36.952 111.796 37.752 113.412 37.752ZM134.019 38.352C133.587 38.64 133.059 38.864 132.435 39.024C131.827 39.184 131.219 39.264 130.611 39.264C129.283 39.264 128.243 38.92 127.491 38.232C126.739 37.528 126.363 36.608 126.363 35.472V27.936H123.459V26.352H126.363V23.496L128.379 23.256V26.352H132.771L132.507 27.936H128.379V35.448C128.379 36.168 128.571 36.704 128.955 37.056C129.339 37.408 129.955 37.584 130.803 37.584C131.667 37.584 132.475 37.384 133.227 36.984L134.019 38.352ZM147.425 36.24C147.425 36.736 147.505 37.104 147.665 37.344C147.825 37.568 148.089 37.736 148.457 37.848L147.953 39.288C146.721 39.128 145.953 38.528 145.649 37.488C145.201 38.064 144.633 38.504 143.945 38.808C143.273 39.112 142.521 39.264 141.689 39.264C140.425 39.264 139.425 38.912 138.689 38.208C137.969 37.504 137.609 36.56 137.609 35.376C137.609 34.08 138.113 33.08 139.121 32.376C140.145 31.672 141.609 31.32 143.513 31.32H145.385V30.288C145.385 29.392 145.129 28.752 144.617 28.368C144.105 27.968 143.361 27.768 142.385 27.768C141.425 27.768 140.329 27.984 139.097 28.416L138.545 26.88C140.033 26.352 141.417 26.088 142.697 26.088C144.233 26.088 145.401 26.448 146.201 27.168C147.017 27.888 147.425 28.888 147.425 30.168V36.24ZM142.193 37.752C142.817 37.752 143.409 37.592 143.969 37.272C144.545 36.952 145.017 36.512 145.385 35.952V32.712H143.561C142.217 32.712 141.249 32.936 140.657 33.384C140.065 33.832 139.769 34.488 139.769 35.352C139.769 36.952 140.577 37.752 142.193 37.752ZM167.734 30.624H176.134V32.352H167.734V30.624ZM205.972 38.352C205.54 38.64 205.012 38.864 204.388 39.024C203.78 39.184 203.172 39.264 202.564 39.264C201.236 39.264 200.196 38.92 199.444 38.232C198.692 37.528 198.316 36.608 198.316 35.472V27.936H195.412V26.352H198.316V23.496L200.332 23.256V26.352H204.724L204.46 27.936H200.332V35.448C200.332 36.168 200.524 36.704 200.908 37.056C201.292 37.408 201.908 37.584 202.756 37.584C203.62 37.584 204.428 37.384 205.18 36.984L205.972 38.352ZM215.106 20.448C215.554 20.448 215.914 20.584 216.186 20.856C216.458 21.112 216.594 21.448 216.594 21.864C216.594 22.28 216.458 22.624 216.186 22.896C215.914 23.152 215.554 23.28 215.106 23.28C214.674 23.28 214.322 23.152 214.05 22.896C213.794 22.624 213.666 22.28 213.666 21.864C213.666 21.448 213.794 21.112 214.05 20.856C214.322 20.584 214.674 20.448 215.106 20.448ZM216.714 37.392H220.266V39H210.81V37.392H214.698V27.96H210.93V26.352H216.714V37.392ZM233.025 26.088C233.745 26.088 234.329 26.344 234.777 26.856C235.241 27.352 235.473 28.264 235.473 29.592V39H233.625V29.928C233.625 29.048 233.569 28.456 233.457 28.152C233.345 27.832 233.073 27.672 232.641 27.672C231.825 27.672 231.089 28.176 230.433 29.184V39H228.561V29.928C228.561 29.048 228.505 28.456 228.393 28.152C228.281 27.832 228.009 27.672 227.577 27.672C226.761 27.672 226.025 28.176 225.369 29.184V39H223.521V26.352H225.081L225.225 27.84C225.609 27.28 226.009 26.848 226.425 26.544C226.857 26.24 227.369 26.088 227.961 26.088C229.145 26.088 229.905 26.648 230.241 27.768C230.625 27.224 231.033 26.808 231.465 26.52C231.897 26.232 232.417 26.088 233.025 26.088ZM240.696 33.384C240.744 34.776 241.104 35.824 241.776 36.528C242.464 37.232 243.328 37.584 244.368 37.584C244.992 37.584 245.56 37.496 246.072 37.32C246.6 37.128 247.16 36.84 247.752 36.456L248.688 37.8C248.096 38.264 247.416 38.624 246.648 38.88C245.896 39.136 245.136 39.264 244.368 39.264C242.544 39.264 241.12 38.672 240.096 37.488C239.088 36.288 238.584 34.688 238.584 32.688C238.584 31.424 238.808 30.296 239.256 29.304C239.704 28.296 240.344 27.512 241.176 26.952C242.008 26.376 242.976 26.088 244.08 26.088C245.68 26.088 246.936 26.648 247.848 27.768C248.776 28.872 249.24 30.384 249.24 32.304C249.24 32.672 249.224 33.032 249.192 33.384H240.696ZM244.104 27.744C243.128 27.744 242.336 28.096 241.728 28.8C241.12 29.488 240.776 30.504 240.696 31.848H247.272C247.256 30.52 246.968 29.504 246.408 28.8C245.848 28.096 245.08 27.744 244.104 27.744ZM262.022 26.088C262.534 26.088 263.126 26.176 263.798 26.352L263.51 30.648H261.878V27.936H261.758C259.806 27.936 258.422 29.328 257.606 32.112V37.44H260.174V39H253.598V37.44H255.59V27.912H253.598V26.352H257.102L257.486 29.352C257.998 28.264 258.606 27.448 259.31 26.904C260.03 26.36 260.934 26.088 262.022 26.088Z" fill="white"/>
<path d="M27.2188 10.4688C27.2188 9.31241 28.1562 8.375 29.3125 8.375H37.6875C38.8438 8.375 39.7813 9.31241 39.7813 10.4688C39.7813 11.6251 38.8438 12.5625 37.6875 12.5625H29.3125C28.1562 12.5625 27.2188 11.6251 27.2188 10.4688Z" fill="#3A52EE"/>
<path fill-rule="evenodd" clip-rule="evenodd" d="M17.2882 24.4367C14.3346 28.0462 12.5625 32.6597 12.5625 37.6875C12.5625 49.2509 21.9365 58.625 33.5 58.625C45.0634 58.625 54.4375 49.2509 54.4375 37.6875C54.4375 32.6597 52.6653 28.0462 49.7118 24.4367L51.2969 22.8516L51.9102 23.4649C52.7279 24.2825 54.0534 24.2825 54.871 23.4649C55.6887 22.6472 55.6887 21.3215 54.871 20.5039L50.6835 16.3164C49.8659 15.4987 48.5404 15.4987 47.7227 16.3164C46.905 17.134 46.905 18.4597 47.7227 19.2774L48.3358 19.8906L46.7506 21.4757C43.1413 18.5221 38.5278 16.75 33.5 16.75C28.4722 16.75 23.8586 18.5221 20.2492 21.4757L18.6641 19.8906L19.2774 19.2774C20.095 18.4597 20.095 17.134 19.2774 16.3164C18.4597 15.4987 17.134 15.4987 16.3164 16.3164L12.1289 20.5039C11.3112 21.3215 11.3112 22.6472 12.1289 23.4649C12.9465 24.2825 14.2722 24.2825 15.0899 23.4649L15.7031 22.8516L17.2882 24.4367ZM35.5938 27.2187C35.5938 26.0624 34.6563 25.125 33.5 25.125C32.3437 25.125 31.4062 26.0624 31.4062 27.2187V35.5937C31.4062 36.7501 32.3437 37.6875 33.5 37.6875C34.6563 37.6875 35.5938 36.7501 35.5938 35.5937V27.2187Z" fill="#3A52EE"/>
</svg>
